<?xml version="1.0" standalone="no"?>
<!DOCTYPE svg PUBLIC "-//W3C//DTD SVG 20010904//EN"
 "http://www.w3.org/TR/2001/REC-SVG-20010904/DTD/svg10.dtd">
<svg version="1.0" xmlns="http://www.w3.org/2000/svg"
 width="1024.000000pt" height="1024.000000pt" viewBox="0 0 1024.000000 1024.000000"
 preserveAspectRatio="xMidYMid meet">

<g transform="translate(0.000000,1024.000000) scale(0.100000,-0.100000)"
fill="#000000" stroke="none">
<path d="M1868 5714 c-156 -185 -337 -401 -403 -479 -273 -323 -388 -461 -407
-487 l-19 -28 904 0 c860 0 907 1 979 19 158 41 314 139 418 263 30 37 169
248 308 471 241 386 252 406 252 453 0 30 -7 59 -16 73 -37 52 -21 51 -908 51
l-825 0 -283 -336z m1475 249 c-167 -2 -439 -2 -605 0 -167 1 -31 2 302 2 333
0 469 -1 303 -2z m-958 -23 c-3 -5 -12 -10 -18 -10 -7 0 -6 4 3 10 19 12 23
12 15 0z m-36 -23 c-2 -1 -13 -9 -24 -17 -19 -14 -19 -14 -6 3 7 9 18 17 24
17 6 0 8 -1 6 -3z m-49 -40 c0 -2 -19 -21 -42 -42 l-43 -40 40 43 c36 39 45
47 45 39z m-80 -90 c0 -2 -15 -16 -32 -33 -27 -24 -29 -25 -13 -4 24 30 45 47
45 37z m1410 -47 c-6 -11 -13 -20 -16 -20 -2 0 0 9 6 20 6 11 13 20 16 20 2 0
0 -9 -6 -20z m-1541 -100 c-29 -33 -54 -60 -57 -60 -5 0 16 25 72 88 51 55 40
35 -15 -28z m1495 32 c-9 -16 -25 -39 -36 -53 l-20 -24 16 28 c28 48 48 77 53
77 2 0 -3 -13 -13 -28z m-1554 -106 c0 -3 -4 -8 -10 -11 -5 -3 -10 -1 -10 4 0
6 5 11 10 11 6 0 10 -2 10 -4z m1444 -66 c-10 -16 -20 -28 -22 -26 -4 5 28 56
35 56 2 0 -4 -13 -13 -30z m-24 -44 c0 -2 -8 -10 -17 -17 -16 -13 -17 -12 -4
4 13 16 21 21 21 13z m-1570 -59 c0 -2 -17 -19 -37 -38 l-38 -34 34 38 c33 34
41 42 41 34z m1514 -32 c-4 -8 -11 -15 -16 -15 -6 0 -5 6 2 15 7 8 14 15 16
15 2 0 1 -7 -2 -15z m-44 -65 c-6 -11 -13 -20 -16 -20 -2 0 0 9 6 20 6 11 13
20 16 20 2 0 0 -9 -6 -20z m-1550 7 c0 -2 -12 -14 -27 -28 l-28 -24 24 28 c23
25 31 32 31 24z m1510 -66 c-5 -11 -15 -23 -21 -27 -6 -3 -3 5 6 20 20 30 30
35 15 7z m-1590 -24 c0 -2 -10 -12 -22 -23 l-23 -19 19 23 c18 21 26 27 26 19z
m1534 -51 c-3 -8 -13 -17 -22 -21 -13 -5 -13 -2 3 15 21 24 26 25 19 6z m-94
-100 c0 -2 -7 -7 -16 -10 -8 -3 -12 -2 -9 4 6 10 25 14 25 6z m-1580 -10 c0
-2 -8 -10 -17 -17 -16 -13 -17 -12 -4 4 13 16 21 21 21 13z m1530 -20 c0 -2
-8 -10 -17 -17 -16 -13 -17 -12 -4 4 13 16 21 21 21 13z m-1570 -46 c-6 -11
-13 -20 -16 -20 -2 0 0 9 6 20 6 11 13 20 16 20 2 0 0 -9 -6 -20z m1495 -10
c-3 -5 -12 -10 -18 -10 -7 0 -6 4 3 10 19 12 23 12 15 0z m-90 -40 c-3 -5 -12
-10 -18 -10 -7 0 -6 4 3 10 19 12 23 12 15 0z m-95 -30 c-8 -5 -28 -9 -45 -9
-30 2 -30 2 5 9 51 11 57 11 40 0z m-947 -7 c-35 -2 -91 -2 -125 0 -35 2 -7 3
62 3 69 0 97 -1 63 -3z m545 0 c-87 -2 -229 -2 -315 0 -87 1 -16 3 157 3 173
0 244 -2 158 -3z m295 0 c-13 -2 -35 -2 -50 0 -16 2 -5 4 22 4 28 0 40 -2 28
-4z"/>
<path d="M4523 6036 c-54 -17 -100 -47 -139 -88 -17 -18 -100 -143 -184 -278
-639 -1023 -684 -1094 -743 -1157 -98 -104 -207 -174 -362 -232 l-70 -26
-1105 -5 -1105 -5 0 -70 c0 -38 4 -81 7 -95 l7 -25 1118 5 1118 5 92 32 c125
44 195 81 289 151 101 77 141 124 259 313 108 173 135 205 208 245 l52 29
3140 5 c1727 3 3136 6 3130 8 -5 1 -1415 2 -3131 2 -2854 0 -3125 -1 -3160
-16 -22 -9 -51 -25 -65 -35 -14 -10 -29 -16 -33 -12 -3 3 -6 1 -6 -5 0 -14
-52 -67 -63 -64 -5 1 -6 -1 -3 -6 7 -11 -119 -213 -128 -204 -4 4 -6 3 -5 -3
4 -15 -11 -55 -22 -55 -5 0 -9 -5 -9 -11 0 -20 -61 -89 -72 -83 -6 4 -8 3 -5
-3 3 -5 -8 -23 -26 -40 -102 -96 -289 -198 -362 -196 -26 0 -33 -2 -21 -7 14
-5 2 -11 -45 -21 -53 -12 -248 -14 -1154 -14 l-1090 0 -8 50 c-5 27 -6 65 -2
83 l6 33 1077 0 c1168 1 1152 1 1146 10 -3 6 76 32 101 33 6 1 12 4 15 7 3 3
32 19 64 35 33 16 71 39 85 52 13 12 39 32 58 43 18 11 33 25 33 31 0 6 7 7
16 4 8 -3 13 -2 10 3 -8 12 29 43 39 34 4 -5 5 -3 2 4 -4 6 -1 18 7 26 8 8 32
40 54 70 22 31 43 53 47 49 5 -4 5 -2 2 4 -10 17 140 250 158 246 8 -2 15 2
15 8 0 6 -4 8 -10 5 -16 -10 -12 5 11 41 11 19 26 31 31 28 7 -4 8 -2 4 4 -3
6 15 45 40 87 28 45 50 71 54 64 5 -7 10 -8 14 -1 3 6 1 12 -5 14 -6 2 7 34
32 75 24 39 47 69 53 66 5 -3 6 -1 3 4 -7 11 76 147 84 138 3 -3 6 1 6 8 0 24
74 138 85 131 7 -4 8 -2 4 4 -10 16 12 54 26 46 6 -4 8 -3 5 3 -3 5 7 32 24
61 22 39 33 50 47 46 13 -5 14 -4 3 4 -11 8 -10 15 8 40 11 17 21 33 21 37 0
15 48 74 55 67 5 -4 5 -2 2 4 -11 20 23 55 46 49 19 -5 20 -5 4 5 -16 10 -15
13 12 36 16 13 36 24 44 24 8 0 20 7 27 15 13 16 35 21 26 6 -7 -11 21 -8 31
4 4 4 3 5 -4 1 -6 -3 -14 -2 -18 4 -4 6 20 10 67 10 2876 -2 5648 4 5648 11 0
5 -1140 9 -2837 8 -2306 0 -2846 -3 -2880 -13z"/>
<path d="M9228 6003 c12 -2 30 -2 40 0 9 3 -1 5 -23 4 -22 0 -30 -2 -17 -4z"/>
<path d="M4447 5965 c-10 -7 -14 -16 -9 -19 5 -3 17 1 27 8 10 7 14 15 9 19
-5 3 -17 -1 -27 -8z"/>
<path d="M6333 5953 c31 -2 83 -2 115 0 31 2 5 3 -58 3 -63 0 -89 -1 -57 -3z"/>
<path d="M7243 5953 c9 -2 25 -2 35 0 9 3 1 5 -18 5 -19 0 -27 -2 -17 -5z"/>
<path d="M7442 5953 c70 -2 187 -2 260 0 73 1 16 3 -127 3 -143 0 -203 -2
-133 -3z"/>
<path d="M9898 5953 c29 -2 74 -2 100 0 26 2 2 3 -53 3 -55 0 -76 -1 -47 -3z"/>
<path d="M10093 5953 c20 -2 54 -2 75 0 20 2 3 4 -38 4 -41 0 -58 -2 -37 -4z"/>
<path d="M4598 5913 c-14 -16 -54 -73 -88 -128 -35 -55 -76 -121 -93 -147 -16
-26 -34 -45 -39 -42 -5 3 -1 16 9 27 l18 22 -22 -19 c-17 -14 -20 -22 -12 -32
13 -16 -17 -67 -34 -57 -6 3 -7 1 -3 -6 4 -7 -6 -34 -25 -62 -24 -38 -34 -47
-41 -37 -7 9 -8 8 -4 -6 4 -11 -3 -33 -16 -54 -19 -32 -22 -33 -30 -16 -7 16
-8 15 -4 -5 4 -18 -12 -50 -55 -116 -32 -51 -59 -99 -59 -108 0 -9 9 -21 19
-27 13 -6 174 -10 454 -10 417 0 435 1 459 20 14 10 29 16 33 12 5 -4 5 -2 1
5 -3 6 3 28 15 48 17 28 24 33 31 23 7 -9 8 -8 4 5 -4 13 54 116 191 340 108
177 199 332 201 344 10 54 15 53 -452 53 l-432 0 -26 -27z"/>
<path d="M5815 5931 c2 -5 -2 -14 -10 -21 -8 -7 -29 -36 -45 -66 -24 -40 -35
-52 -51 -49 -11 2 -17 0 -14 -6 4 -5 11 -7 16 -4 22 14 4 -19 -141 -255 -70
-114 -93 -145 -109 -144 -12 1 -21 -2 -21 -6 0 -5 -3 -17 -6 -27 -4 -13 0 -11
15 7 40 48 21 6 -49 -106 -38 -63 -70 -118 -70 -123 0 -5 7 -17 16 -25 14 -14
67 -16 439 -16 240 0 434 4 448 9 17 7 45 43 83 108 122 208 137 232 145 228
4 -3 11 0 15 6 4 8 3 9 -4 5 -7 -4 -12 -4 -12 -1 0 4 59 104 130 223 72 120
130 225 130 233 0 38 -16 40 -469 39 -243 -1 -439 -5 -436 -9z"/>
<path d="M7027 5929 c-9 -5 -24 -24 -33 -41 -13 -25 -18 -28 -26 -17 -8 11 -9
10 -4 -4 8 -26 -190 -356 -212 -352 -9 1 -11 0 -4 -2 16 -6 15 -15 -4 -39 -15
-19 -16 -19 -9 1 3 11 2 16 -2 11 -4 -4 -8 -18 -8 -29 0 -12 -5 -22 -12 -22
-6 0 -15 -4 -20 -9 -5 -5 -3 -6 5 -2 22 13 13 -5 -73 -150 -47 -78 -85 -145
-85 -147 0 -3 7 -13 16 -21 14 -14 68 -16 442 -16 358 0 431 2 448 15 12 8 63
84 114 170 51 85 95 154 97 151 3 -2 0 -13 -6 -25 -7 -13 -8 -22 -1 -26 12 -7
12 -9 14 40 3 43 37 110 51 97 5 -4 5 -2 2 4 -5 9 156 293 193 339 18 23 20
53 5 69 -15 14 -64 16 -443 16 -271 0 -433 -4 -445 -11z"/>
<path d="M8192 5919 c-7 -11 -10 -24 -7 -29 3 -5 -6 -31 -21 -57 -52 -92 -127
-218 -149 -253 -12 -19 -51 -84 -85 -143 -46 -77 -66 -104 -73 -95 -6 9 -7 8
-3 -5 4 -12 -12 -48 -44 -101 -54 -90 -61 -120 -30 -136 13 -7 167 -10 462 -9
244 1 437 3 431 6 -9 3 -6 13 9 34 16 22 24 26 31 17 6 -9 7 -7 3 5 -8 26 30
98 49 91 8 -4 15 -1 15 6 0 6 -4 8 -10 5 -20 -12 -9 9 81 161 70 119 94 152
107 147 14 -4 14 -3 3 5 -12 8 -10 16 8 46 13 20 27 34 31 31 5 -3 12 0 16 6
4 8 3 9 -4 5 -19 -11 -14 3 19 60 17 30 34 52 39 49 4 -3 7 3 6 13 -1 11 5 16
17 14 9 -2 17 2 17 8 0 6 -4 8 -10 5 -16 -10 -12 7 10 40 24 36 26 81 4 89
-26 10 -868 7 -884 -4 -9 -5 -17 -5 -20 0 -3 5 -11 0 -18 -11z m10 -21 c-7 -7
-12 -8 -12 -2 0 14 12 26 19 19 2 -3 -1 -11 -7 -17z"/>
<path d="M9427 5908 c-18 -18 -35 -33 -39 -33 -3 0 -10 -4 -15 -9 -5 -6 -2 -6
6 -1 22 13 15 -1 -143 -265 -97 -162 -152 -244 -161 -242 -8 2 -15 -2 -15 -8
0 -6 5 -8 10 -5 18 11 11 -5 -50 -107 -33 -56 -60 -105 -60 -109 0 -5 10 -15
22 -23 19 -14 78 -16 441 -16 l419 0 32 33 c17 19 85 126 150 239 90 156 123
205 135 201 13 -4 13 -3 2 5 -11 8 -7 20 20 65 18 31 36 54 39 52 10 -6 12 9
17 138 l4 117 -391 0 -392 0 -31 -32z"/>
<path d="M5730 5844 c0 -8 5 -12 10 -9 6 3 10 10 10 16 0 5 -4 9 -10 9 -5 0
-10 -7 -10 -16z"/>
<path d="M5500 5835 c-6 -8 -9 -19 -5 -25 10 -15 24 -3 22 20 -2 24 -1 24 -17
5z"/>
<path d="M4486 5794 c-9 -24 -2 -26 12 -4 7 11 8 20 3 20 -5 0 -12 -7 -15 -16z"/>
<path d="M6880 5770 c0 -5 5 -10 11 -10 5 0 7 5 4 10 -3 6 -8 10 -11 10 -2 0
-4 -4 -4 -10z"/>
<path d="M4460 5749 c0 -5 5 -7 10 -4 6 3 10 8 10 11 0 2 -4 4 -10 4 -5 0 -10
-5 -10 -11z"/>
<path d="M4443 5725 c0 -8 4 -12 9 -9 5 3 6 10 3 15 -9 13 -12 11 -12 -6z"/>
<path d="M5430 5719 c0 -5 5 -7 10 -4 6 3 10 8 10 11 0 2 -4 4 -10 4 -5 0 -10
-5 -10 -11z"/>
<path d="M9046 5714 c-5 -14 -4 -15 9 -4 17 14 19 20 6 20 -5 0 -12 -7 -15
-16z"/>
<path d="M6850 5710 c0 -5 5 -10 10 -10 6 0 10 5 10 10 0 6 -4 10 -10 10 -5 0
-10 -4 -10 -10z"/>
<path d="M8050 5709 c0 -5 5 -7 10 -4 6 3 10 8 10 11 0 2 -4 4 -10 4 -5 0 -10
-5 -10 -11z"/>
<path d="M7827 5691 c-4 -17 -3 -21 5 -13 5 5 8 16 6 23 -3 8 -7 3 -11 -10z"/>
<path d="M4405 5669 c-4 -6 -5 -12 -2 -15 2 -3 7 2 10 11 7 17 1 20 -8 4z"/>
<path d="M5600 5651 c0 -6 4 -13 10 -16 6 -3 7 1 4 9 -7 18 -14 21 -14 7z"/>
<path d="M6591 5646 c-7 -8 -8 -17 -3 -20 6 -3 12 3 15 14 6 24 4 25 -12 6z"/>
<path d="M10205 5650 c-3 -5 -1 -10 4 -10 6 0 11 5 11 10 0 6 -2 10 -4 10 -3
0 -8 -4 -11 -10z"/>
<path d="M9200 5611 c0 -5 5 -13 10 -16 6 -3 10 -2 10 4 0 5 -4 13 -10 16 -5
3 -10 2 -10 -4z"/>
<path d="M5561 5574 c0 -11 3 -14 6 -6 3 7 2 16 -1 19 -3 4 -6 -2 -5 -13z"/>
<path d="M7737 5547 c-3 -8 1 -14 9 -14 16 0 19 13 5 21 -5 3 -11 0 -14 -7z"/>
<path d="M5517 5490 c-9 -11 -13 -20 -7 -20 5 0 14 9 20 20 6 11 9 20 8 20 -2
0 -11 -9 -21 -20z"/>
<path d="M9115 5439 c-4 -6 -5 -12 -2 -15 2 -3 7 2 10 11 7 17 1 20 -8 4z"/>
<path d="M8850 5390 c0 -5 5 -10 10 -10 6 0 10 5 10 10 0 6 -4 10 -10 10 -5 0
-10 -4 -10 -10z"/>
<path d="M6640 5371 c0 -6 4 -13 10 -16 6 -3 7 1 4 9 -7 18 -14 21 -14 7z"/>
<path d="M6420 5360 c0 -5 5 -10 10 -10 6 0 10 5 10 10 0 6 -4 10 -10 10 -5 0
-10 -4 -10 -10z"/>
<path d="M8835 5359 c-4 -6 -5 -12 -2 -15 2 -3 7 2 10 11 7 17 1 20 -8 4z"/>
<path d="M10035 5359 c-4 -6 -5 -12 -2 -15 2 -3 7 2 10 11 7 17 1 20 -8 4z"/>
<path d="M5183 5318 c-6 -7 -14 -20 -18 -28 -7 -12 -6 -13 7 -3 8 7 17 11 19
8 3 -2 5 5 5 15 0 24 -1 24 -13 8z"/>
<path d="M8811 5323 c-1 -6 -4 -20 -7 -30 -5 -17 -5 -17 6 0 6 10 9 23 6 30
-3 9 -5 9 -5 0z"/>
<path d="M5363 5248 c1 -10 2 -18 4 -18 1 0 7 8 12 18 7 14 6 19 -4 19 -7 0
-13 -9 -12 -19z"/>
<path d="M5140 5241 c0 -6 5 -13 10 -16 6 -3 10 1 10 9 0 9 -4 16 -10 16 -5 0
-10 -4 -10 -9z"/>
<path d="M8960 5191 c0 -25 6 -27 13 -6 4 8 2 17 -3 20 -6 4 -10 -3 -10 -14z"/>
<path d="M5325 5189 c-11 -17 1 -21 15 -4 8 9 8 15 2 15 -6 0 -14 -5 -17 -11z"/>
<path d="M7721 5144 c0 -11 3 -14 6 -6 3 7 2 16 -1 19 -3 4 -6 -2 -5 -13z"/>
<path d="M5320 5090 c0 -6 7 -10 15 -10 8 0 15 2 15 4 0 2 -7 6 -15 10 -8 3
-15 1 -15 -4z"/>
<path d="M7338 5073 c12 -2 30 -2 40 0 9 3 -1 5 -23 4 -22 0 -30 -2 -17 -4z"/>
<path d="M8248 5073 c6 -2 18 -2 25 0 6 3 1 5 -13 5 -14 0 -19 -2 -12 -5z"/>
<path d="M9645 5070 c3 -5 12 -7 20 -3 21 7 19 13 -6 13 -11 0 -18 -4 -14 -10z"/>
<path d="M8248 5043 c6 -2 18 -2 25 0 6 3 1 5 -13 5 -14 0 -19 -2 -12 -5z"/>
<path d="M3640 4534 c0 -8 5 -12 10 -9 6 4 8 11 5 16 -9 14 -15 11 -15 -7z"/>
<path d="M979 3772 c24 -45 142 -140 222 -180 140 -69 216 -82 487 -82 l232 0
0 -32 c0 -41 42 -134 78 -172 36 -38 88 -71 144 -90 38 -13 108 -15 405 -16
337 -1 362 0 425 19 113 36 206 139 224 249 l7 42 188 0 189 0 0 -28 c0 -93
80 -201 187 -254 l65 -32 351 3 c194 1 372 7 395 12 130 29 244 141 266 261
l7 38 2692 3 c1481 2 732 3 -1663 3 -2584 -1 -4381 3 -4420 8 -54 8 -61 11
-40 17 18 6 15 7 -13 3 -62 -8 -267 72 -251 98 4 7 3 8 -4 4 -7 -4 -21 -1 -33
7 -15 11 -17 16 -7 21 7 3 4 4 -7 3 -14 -1 -21 6 -26 28 -6 27 -7 27 -8 5 l-1
-24 -22 21 c-18 18 -19 24 -8 37 7 10 8 16 2 16 -6 0 -13 -6 -16 -12 -3 -9 -9
-7 -21 7 -16 20 -14 20 4612 25 l4628 5 -4638 3 c-4497 2 -4637 1 -4628 -16z"/>
<path d="M1093 3763 c9 -2 25 -2 35 0 9 3 1 5 -18 5 -19 0 -27 -2 -17 -5z"/>
<path d="M2283 3763 c9 -2 23 -2 30 0 6 3 -1 5 -18 5 -16 0 -22 -2 -12 -5z"/>
<path d="M3888 3523 c6 -2 18 -2 25 0 6 3 1 5 -13 5 -14 0 -19 -2 -12 -5z"/>
</g>
</svg>
